# xmcd
#
# Track frame offsets: 
#        150
#        41168
#        63631
#        97212
#        131318
#        166299
#
# Disc length: 2548 seconds
#
# Revision: 0
# Processed by: cddbd v1.5.2PL0 Copyright (c) Steve Scherf et al.
# Submitted via: ExactAudioCopy v1.0b2
#
DISCID=5209f206
DTITLE=Ulf Lundell - Roskilde Orange Stage 2 Juli 1999 [CD 1)
DYEAR=2011
DGENRE=Rock
TTITLE0=Den Natt Som Aldrig Dagas
TTITLE1=I Kvinnors Ogon
TTITLE2=Hon Gör Mej Galen
TTITLE3=Chans
TTITLE4=Gott Att Leva
TTITLE5=Lycklig, Lycklig
EXTD=
EXTT0=
EXTT1=
EXTT2=
EXTT3=
EXTT4=
EXTT5=
PLAYORDER=
